<?xml version="1.0" encoding="UTF-8" standalone="no"?>
<!DOCTYPE svg PUBLIC "-//W3C//DTD SVG 1.1//EN" "http://www.w3.org/Graphics/SVG/1.1/DTD/svg11.dtd">
<svg width="100%" height="100%" viewBox="0 0 16 22" version="1.1" xmlns="http://www.w3.org/2000/svg" xmlns:xlink="http://www.w3.org/1999/xlink" xml:space="preserve" xmlns:serif="http://www.serif.com/" style="fill-rule:evenodd;clip-rule:evenodd;stroke-linejoin:round;stroke-miterlimit:2;">
    <g transform="matrix(1,0,0,1,-4.25,-1.25)">
        <path d="M5,9C5,5.134 8.134,2 12,2C15.866,2 19,5.134 19,9C19,10.866 18.27,12.562 17.08,13.816C15.993,14.962 15,16.332 15,17.911L15,17C15,17 13.5,18 12,18C10.5,18 9,17 9,17L9,17.908C8.999,16.331 8.006,14.961 6.92,13.816C5.73,12.562 5,10.866 5,9ZM9,19L9,17.908L9,19Z" style="fill:none;"/>
    </g>
    <g transform="matrix(1,0,0,1,-4.25,-1.25)">
        <path d="M5.75,9C5.75,5.548 8.548,2.75 12,2.75C15.452,2.75 18.25,5.548 18.25,9C18.25,10.666 17.599,12.179 16.536,13.3C15.734,14.146 14.891,15.198 14.49,16.435C14.458,16.454 14.417,16.478 14.37,16.505C14.223,16.589 14.012,16.702 13.758,16.815C13.237,17.046 12.599,17.25 12,17.25C11.401,17.25 10.763,17.046 10.242,16.815C9.988,16.702 9.777,16.589 9.63,16.505C9.583,16.478 9.543,16.454 9.51,16.435C9.109,15.198 8.266,14.146 7.464,13.3C6.401,12.179 5.75,10.666 5.75,9ZM9.75,18.236C10.346,18.49 11.156,18.75 12,18.75C12.845,18.75 13.654,18.49 14.25,18.236L14.25,19C14.25,20.243 13.243,21.25 12,21.25C10.757,21.25 9.75,20.243 9.75,19L9.75,18.236ZM12,1.25C7.72,1.25 4.25,4.72 4.25,9C4.25,11.066 5.059,12.944 6.376,14.333C7.445,15.459 8.25,16.643 8.25,17.911L8.25,19C8.25,21.071 9.929,22.75 12,22.75C14.071,22.75 15.75,21.071 15.75,19L15.75,17.911C15.75,16.643 16.555,15.459 17.624,14.333C18.941,12.944 19.75,11.066 19.75,9C19.75,4.72 16.28,1.25 12,1.25Z" style="fill:rgb(34,40,47);"/>
    </g>
</svg>
