<?xml version="1.0" encoding="UTF-8" standalone="no"?>
<!DOCTYPE svg PUBLIC "-//W3C//DTD SVG 1.1//EN" "http://www.w3.org/Graphics/SVG/1.1/DTD/svg11.dtd">
<svg width="100%" height="100%" viewBox="0 0 18 22" version="1.1" xmlns="http://www.w3.org/2000/svg" xmlns:xlink="http://www.w3.org/1999/xlink" xml:space="preserve" xmlns:serif="http://www.serif.com/" style="fill-rule:evenodd;clip-rule:evenodd;stroke-linejoin:round;stroke-miterlimit:2;">
    <g transform="matrix(1,0,0,1,-3.25,-1.25)">
        <path d="M20,12C20,9.792 18.208,8 16,8L8,8C5.792,8 4,9.792 4,12L4,18C4,20.208 5.792,22 8,22L16,22C18.208,22 20,20.208 20,18L20,12Z" style="fill:none;"/>
    </g>
    <g transform="matrix(1,0,0,1,-3.25,-1.25)">
        <path d="M14.244,2.774C14.141,2.754 14.001,2.75 13.5,2.75L12,2.75C11.036,2.75 10.388,2.752 9.905,2.817C9.444,2.879 9.246,2.986 9.116,3.116C8.986,3.246 8.879,3.444 8.817,3.905C8.752,4.388 8.75,5.036 8.75,6L8.75,7.27C9.39,7.25 10.121,7.25 10.958,7.25L13.042,7.25C14.411,7.25 15.496,7.25 16.362,7.338C17.25,7.428 17.991,7.617 18.639,8.051C19.158,8.397 19.603,8.842 19.95,9.361C20.383,10.009 20.572,10.75 20.662,11.638C20.75,12.504 20.75,13.589 20.75,14.959L20.75,15.042C20.75,16.411 20.75,17.496 20.662,18.362C20.572,19.25 20.383,19.991 19.95,20.639C19.603,21.158 19.158,21.603 18.639,21.95C17.991,22.383 17.25,22.572 16.362,22.662C15.496,22.75 14.411,22.75 13.042,22.75L10.958,22.75C9.589,22.75 8.504,22.75 7.638,22.662C6.75,22.572 6.009,22.383 5.361,21.95C4.842,21.603 4.397,21.158 4.051,20.639C3.617,19.991 3.428,19.25 3.338,18.362C3.25,17.496 3.25,16.411 3.25,15.042L3.25,14.959C3.25,13.589 3.25,12.504 3.338,11.638C3.428,10.75 3.617,10.009 4.051,9.361C4.397,8.842 4.842,8.397 5.361,8.051C5.912,7.682 6.531,7.49 7.25,7.386L7.25,5.948C7.25,5.05 7.25,4.3 7.33,3.706C7.414,3.078 7.6,2.511 8.055,2.056C8.511,1.6 9.078,1.414 9.706,1.33C10.3,1.25 11.05,1.25 11.948,1.25L13.5,1.25L13.573,1.25C13.966,1.25 14.269,1.25 14.537,1.303C15.627,1.52 16.48,2.373 16.697,3.464C16.75,3.731 16.75,4.034 16.75,4.427L16.75,5C16.75,5.414 16.414,5.75 16,5.75C15.586,5.75 15.25,5.414 15.25,5L15.25,4.5C15.25,3.999 15.246,3.859 15.226,3.756C15.127,3.26 14.74,2.873 14.244,2.774ZM7.79,8.83C7.021,8.909 6.555,9.057 6.194,9.298C5.84,9.535 5.535,9.84 5.298,10.194C5.057,10.555 4.909,11.021 4.83,11.79C4.751,12.571 4.75,13.58 4.75,15C4.75,16.42 4.751,17.429 4.83,18.21C4.909,18.979 5.057,19.445 5.298,19.806C5.535,20.161 5.84,20.465 6.194,20.702C6.555,20.943 7.021,21.091 7.79,21.17C8.571,21.249 9.58,21.25 11,21.25L13,21.25C14.42,21.25 15.429,21.249 16.21,21.17C16.979,21.091 17.445,20.943 17.806,20.702C18.161,20.465 18.465,20.161 18.702,19.806C18.943,19.445 19.091,18.979 19.17,18.21C19.249,17.429 19.25,16.42 19.25,15C19.25,13.58 19.249,12.571 19.17,11.79C19.091,11.021 18.943,10.555 18.702,10.194C18.465,9.84 18.161,9.535 17.806,9.298C17.445,9.057 16.979,8.909 16.21,8.83C15.429,8.751 14.42,8.75 13,8.75L11,8.75C9.58,8.75 8.571,8.751 7.79,8.83ZM12.75,14C12.75,13.586 12.414,13.25 12,13.25C11.586,13.25 11.25,13.586 11.25,14L11.25,16C11.25,16.414 11.586,16.75 12,16.75C12.414,16.75 12.75,16.414 12.75,16L12.75,14Z" style="fill:rgb(34,40,47);"/>
    </g>
</svg>
